<svg width="14" height="14" viewBox="0 0 14 14" fill="none" xmlns="http://www.w3.org/2000/svg">
<path d="M6.9987 1C3.68562 1 1 3.68562 1 6.9987C1 10.3118 3.68562 12.9974 6.9987 12.9974C10.3118 12.9974 12.9974 10.3118 12.9974 6.9987C12.9974 3.68562 10.3118 1 6.9987 1Z" stroke="#1E75B7" stroke-linecap="round" stroke-linejoin="round"/>
<path d="M2.36328 10.8049C2.36328 10.8049 3.70039 9.09766 6.99967 9.09766C10.299 9.09766 11.6367 10.8049 11.6367 10.8049" stroke="#1E75B7" stroke-linecap="round" stroke-linejoin="round"/>
<path d="M6.99883 7.00156C7.47611 7.00156 7.93385 6.81196 8.27134 6.47447C8.60884 6.13698 8.79844 5.67924 8.79844 5.20195C8.79844 4.72467 8.60884 4.26693 8.27134 3.92944C7.93385 3.59194 7.47611 3.40234 6.99883 3.40234C6.52154 3.40234 6.0638 3.59194 5.72631 3.92944C5.38882 4.26693 5.19922 4.72467 5.19922 5.20195C5.19922 5.67924 5.38882 6.13698 5.72631 6.47447C6.0638 6.81196 6.52154 7.00156 6.99883 7.00156V7.00156Z" stroke="#1E75B7" stroke-linecap="round" stroke-linejoin="round"/>
</svg>
