<svg width="16" height="10" viewBox="0 0 16 10" fill="none" xmlns="http://www.w3.org/2000/svg">
<path d="M15.52 4.19922H12.8V1.47922C12.8 0.999219 12.48 0.999219 12 0.999219C11.52 0.999219 11.2 0.999219 11.2 1.47922V4.19922H8.48C8 4.19922 8 4.51922 8 4.99922C8 5.47922 8 5.79922 8.48 5.79922H11.2V8.51922C11.2 8.99922 11.52 8.99922 12 8.99922C12.48 8.99922 12.8 8.99922 12.8 8.51922V5.79922H15.52C16 5.79922 16 5.47922 16 4.99922C16 4.51922 16 4.19922 15.52 4.19922ZM5.92 4.19922H0.48C0 4.19922 0 4.51922 0 4.99922C0 5.47922 0 5.79922 0.48 5.79922H5.92C6.4 5.79922 6.4 5.47922 6.4 4.99922C6.4 4.51922 6.4 4.19922 5.92 4.19922ZM5.92 8.19922H0.48C0 8.19922 0 8.51922 0 8.99922C0 9.47922 0 9.79922 0.48 9.79922H5.92C6.4 9.79922 6.4 9.47922 6.4 8.99922C6.4 8.51922 6.4 8.19922 5.92 8.19922ZM5.92 0.199219H0.48C0 0.199219 0 0.519219 0 0.999219C0 1.47922 0 1.79922 0.48 1.79922H5.92C6.4 1.79922 6.4 1.47922 6.4 0.999219C6.4 0.519219 6.4 0.199219 5.92 0.199219Z" fill="#1E75B7"/>
</svg>
