<svg width="15" height="14" viewBox="0 0 15 14" fill="none" xmlns="http://www.w3.org/2000/svg">
<path fill-rule="evenodd" clip-rule="evenodd" d="M7.50065 0.583984C3.9569 0.583984 1.08398 3.4569 1.08398 7.00065C1.08398 10.5444 3.9569 13.4173 7.50065 13.4173C11.0444 13.4173 13.9173 10.5444 13.9173 7.00065C13.9173 3.4569 11.0444 0.583984 7.50065 0.583984ZM10.282 5.91565C10.3332 5.85711 10.3722 5.78892 10.3967 5.71508C10.4211 5.64125 10.4306 5.56327 10.4245 5.48572C10.4184 5.40818 10.3968 5.33265 10.3611 5.26356C10.3253 5.19447 10.2761 5.13323 10.2164 5.08343C10.1566 5.03364 10.0875 4.9963 10.0131 4.9736C9.93872 4.95091 9.86054 4.94333 9.78316 4.9513C9.70579 4.95927 9.63079 4.98264 9.56258 5.02002C9.49437 5.0574 9.43433 5.10805 9.38598 5.16898L6.87765 8.1784L5.57973 6.8799C5.46972 6.77364 5.32236 6.71484 5.16942 6.71617C5.01647 6.7175 4.87016 6.77885 4.76201 6.88701C4.65385 6.99516 4.5925 7.14147 4.59117 7.29442C4.58984 7.44736 4.64864 7.59472 4.7549 7.70473L6.5049 9.45473C6.56222 9.51202 6.63084 9.55673 6.70639 9.58602C6.78195 9.61531 6.86277 9.62854 6.94372 9.62486C7.02467 9.62119 7.10397 9.60068 7.17656 9.56466C7.24914 9.52864 7.31343 9.47789 7.36532 9.41565L10.282 5.91565Z" fill="white"/>
</svg>
