<svg width="384" height="34" viewBox="0 0 384 34" fill="none" xmlns="http://www.w3.org/2000/svg">
<path d="M8.90723 22H7.17773L2.74121 14.9385V22H1.01172V12.0469H2.74121L7.19141 19.1357V12.0469H8.90723V22ZM14.0479 22.1367C12.9951 22.1367 12.1406 21.8063 11.4844 21.1455C10.8327 20.4801 10.5068 19.596 10.5068 18.4932V18.2881C10.5068 17.5498 10.6481 16.8913 10.9307 16.3125C11.2178 15.7292 11.6188 15.2757 12.1338 14.9521C12.6488 14.6286 13.223 14.4668 13.8564 14.4668C14.8636 14.4668 15.6406 14.7881 16.1875 15.4307C16.7389 16.0732 17.0146 16.9824 17.0146 18.1582V18.8281H12.1816C12.2318 19.4388 12.4346 19.9219 12.79 20.2773C13.1501 20.6328 13.6012 20.8105 14.1436 20.8105C14.9046 20.8105 15.5244 20.5029 16.0029 19.8877L16.8984 20.7422C16.6022 21.1842 16.2057 21.5283 15.709 21.7744C15.2168 22.016 14.6631 22.1367 14.0479 22.1367ZM13.8496 15.7998C13.3939 15.7998 13.0247 15.9593 12.7422 16.2783C12.4642 16.5973 12.2865 17.0417 12.209 17.6113H15.374V17.4883C15.3376 16.9323 15.1895 16.513 14.9297 16.2305C14.6699 15.9434 14.3099 15.7998 13.8496 15.7998ZM24.8076 19.71L25.9834 14.6035H27.6035L25.5869 22H24.2197L22.6338 16.9209L21.0752 22H19.708L17.6846 14.6035H19.3047L20.501 19.6553L22.0186 14.6035H23.2695L24.8076 19.71ZM34.0908 18.3018V22H32.3613V12.0469H36.1689C37.2809 12.0469 38.1628 12.3363 38.8145 12.915C39.4707 13.4938 39.7988 14.2594 39.7988 15.2119C39.7988 16.1872 39.4775 16.946 38.835 17.4883C38.1969 18.0306 37.3014 18.3018 36.1484 18.3018H34.0908ZM34.0908 16.9141H36.1689C36.7842 16.9141 37.2536 16.7705 37.5771 16.4834C37.9007 16.1917 38.0625 15.7725 38.0625 15.2256C38.0625 14.6878 37.8984 14.2594 37.5703 13.9404C37.2422 13.6169 36.791 13.4505 36.2168 13.4414H34.0908V16.9141ZM45.4932 22C45.4202 21.8587 45.3564 21.6286 45.3018 21.3096C44.7731 21.861 44.126 22.1367 43.3604 22.1367C42.6175 22.1367 42.0114 21.9248 41.542 21.501C41.0726 21.0771 40.8379 20.5531 40.8379 19.9287C40.8379 19.1403 41.1296 18.5365 41.7129 18.1172C42.3008 17.6934 43.1393 17.4814 44.2285 17.4814H45.2471V16.9961C45.2471 16.6133 45.14 16.3079 44.9258 16.0801C44.7116 15.8477 44.3857 15.7314 43.9482 15.7314C43.57 15.7314 43.2601 15.8271 43.0186 16.0186C42.777 16.2054 42.6562 16.4447 42.6562 16.7363H40.9951C40.9951 16.3307 41.1296 15.9525 41.3984 15.6016C41.6673 15.2461 42.0319 14.9681 42.4922 14.7676C42.957 14.5671 43.4743 14.4668 44.0439 14.4668C44.9098 14.4668 45.6003 14.6855 46.1152 15.123C46.6302 15.556 46.8945 16.1667 46.9082 16.9551V20.291C46.9082 20.9564 47.0016 21.4873 47.1885 21.8838V22H45.4932ZM43.668 20.8037C43.9961 20.8037 44.3037 20.724 44.5908 20.5645C44.8825 20.4049 45.1012 20.1908 45.2471 19.9219V18.5273H44.3516C43.7363 18.5273 43.2738 18.6344 42.9639 18.8486C42.654 19.0628 42.499 19.3659 42.499 19.7578C42.499 20.0768 42.6038 20.332 42.8135 20.5234C43.0277 20.7103 43.3125 20.8037 43.668 20.8037ZM52.7939 19.9902C52.7939 19.694 52.6709 19.4684 52.4248 19.3135C52.1833 19.1585 51.7799 19.0218 51.2148 18.9033C50.6497 18.7848 50.1781 18.6344 49.7998 18.4521C48.9704 18.0511 48.5557 17.4701 48.5557 16.709C48.5557 16.071 48.8245 15.5378 49.3623 15.1094C49.9001 14.681 50.5837 14.4668 51.4131 14.4668C52.2972 14.4668 53.0104 14.6855 53.5527 15.123C54.0996 15.5605 54.373 16.1279 54.373 16.8252H52.7119C52.7119 16.5062 52.5934 16.2419 52.3564 16.0322C52.1195 15.818 51.805 15.7109 51.4131 15.7109C51.0485 15.7109 50.75 15.7952 50.5176 15.9639C50.2897 16.1325 50.1758 16.3581 50.1758 16.6406C50.1758 16.8958 50.2829 17.0941 50.4971 17.2354C50.7113 17.3766 51.1442 17.5202 51.7959 17.666C52.4476 17.8073 52.958 17.9782 53.3271 18.1787C53.7008 18.3747 53.9766 18.6117 54.1543 18.8896C54.3366 19.1676 54.4277 19.5049 54.4277 19.9014C54.4277 20.5667 54.152 21.1068 53.6006 21.5215C53.0492 21.9316 52.3268 22.1367 51.4336 22.1367C50.8275 22.1367 50.2874 22.0273 49.8135 21.8086C49.3395 21.5898 48.9704 21.2891 48.7061 20.9062C48.4417 20.5234 48.3096 20.111 48.3096 19.6689H49.9229C49.9456 20.0609 50.0938 20.3639 50.3672 20.5781C50.6406 20.7878 51.0029 20.8926 51.4541 20.8926C51.8916 20.8926 52.2243 20.8105 52.4521 20.6465C52.68 20.4779 52.7939 20.2591 52.7939 19.9902ZM60.0264 19.9902C60.0264 19.694 59.9033 19.4684 59.6572 19.3135C59.4157 19.1585 59.0124 19.0218 58.4473 18.9033C57.8822 18.7848 57.4105 18.6344 57.0322 18.4521C56.2028 18.0511 55.7881 17.4701 55.7881 16.709C55.7881 16.071 56.057 15.5378 56.5947 15.1094C57.1325 14.681 57.8161 14.4668 58.6455 14.4668C59.5296 14.4668 60.2428 14.6855 60.7852 15.123C61.332 15.5605 61.6055 16.1279 61.6055 16.8252H59.9443C59.9443 16.5062 59.8258 16.2419 59.5889 16.0322C59.3519 15.818 59.0374 15.7109 58.6455 15.7109C58.2809 15.7109 57.9824 15.7952 57.75 15.9639C57.5221 16.1325 57.4082 16.3581 57.4082 16.6406C57.4082 16.8958 57.5153 17.0941 57.7295 17.2354C57.9437 17.3766 58.3766 17.5202 59.0283 17.666C59.68 17.8073 60.1904 17.9782 60.5596 18.1787C60.9333 18.3747 61.209 18.6117 61.3867 18.8896C61.569 19.1676 61.6602 19.5049 61.6602 19.9014C61.6602 20.5667 61.3844 21.1068 60.833 21.5215C60.2816 21.9316 59.5592 22.1367 58.666 22.1367C58.0599 22.1367 57.5199 22.0273 57.0459 21.8086C56.5719 21.5898 56.2028 21.2891 55.9385 20.9062C55.6742 20.5234 55.542 20.111 55.542 19.6689H57.1553C57.1781 20.0609 57.3262 20.3639 57.5996 20.5781C57.873 20.7878 58.2354 20.8926 58.6865 20.8926C59.124 20.8926 59.4567 20.8105 59.6846 20.6465C59.9124 20.4779 60.0264 20.2591 60.0264 19.9902ZM69.6104 19.71L70.7861 14.6035H72.4062L70.3896 22H69.0225L67.4365 16.9209L65.8779 22H64.5107L62.4873 14.6035H64.1074L65.3037 19.6553L66.8213 14.6035H68.0723L69.6104 19.71ZM73.2061 18.2334C73.2061 17.5088 73.3496 16.8571 73.6367 16.2783C73.9238 15.695 74.3271 15.2484 74.8467 14.9385C75.3662 14.624 75.9632 14.4668 76.6377 14.4668C77.6357 14.4668 78.4447 14.7881 79.0645 15.4307C79.6888 16.0732 80.026 16.9255 80.0762 17.9873L80.083 18.377C80.083 19.1061 79.9417 19.7578 79.6592 20.332C79.3812 20.9062 78.9801 21.3506 78.4561 21.665C77.9365 21.9795 77.335 22.1367 76.6514 22.1367C75.6077 22.1367 74.7715 21.7904 74.1426 21.0977C73.5182 20.4004 73.2061 19.473 73.2061 18.3154V18.2334ZM74.8672 18.377C74.8672 19.138 75.0244 19.735 75.3389 20.168C75.6533 20.5964 76.0908 20.8105 76.6514 20.8105C77.2119 20.8105 77.6471 20.5918 77.957 20.1543C78.2715 19.7168 78.4287 19.0765 78.4287 18.2334C78.4287 17.486 78.2669 16.8936 77.9434 16.4561C77.6243 16.0186 77.1891 15.7998 76.6377 15.7998C76.0954 15.7998 75.6647 16.0163 75.3457 16.4492C75.0267 16.8776 74.8672 17.5202 74.8672 18.377ZM85.3604 16.1211C85.1416 16.0846 84.916 16.0664 84.6836 16.0664C83.9225 16.0664 83.4098 16.3581 83.1455 16.9414V22H81.4844V14.6035H83.0703L83.1113 15.4307C83.5124 14.7881 84.0684 14.4668 84.7793 14.4668C85.0163 14.4668 85.2122 14.4987 85.3672 14.5625L85.3604 16.1211ZM85.9619 18.2471C85.9619 17.1077 86.2262 16.194 86.7549 15.5059C87.2835 14.8132 87.9922 14.4668 88.8809 14.4668C89.6647 14.4668 90.2982 14.7402 90.7812 15.2871V11.5H92.4424V22H90.9385L90.8564 21.2344C90.3597 21.8359 89.6966 22.1367 88.8672 22.1367C88.0013 22.1367 87.2995 21.7881 86.7617 21.0908C86.2285 20.3936 85.9619 19.4456 85.9619 18.2471ZM87.623 18.3906C87.623 19.1426 87.7666 19.7305 88.0537 20.1543C88.3454 20.5736 88.7578 20.7832 89.291 20.7832C89.9701 20.7832 90.4668 20.4801 90.7812 19.874V16.7158C90.4759 16.1234 89.9837 15.8271 89.3047 15.8271C88.7669 15.8271 88.3522 16.0413 88.0605 16.4697C87.7689 16.8936 87.623 17.5339 87.623 18.3906Z" fill="black"/>
<rect x="167.5" y="0.5" width="216" height="33" rx="3.5" fill="white" stroke="#CFDCE5"/>
<path d="M355.5 16.5C355.5 16.5 358.125 19.5 363 19.5C367.875 19.5 370.5 16.5 370.5 16.5" stroke="#B6B6B6" stroke-linecap="round" stroke-linejoin="round"/>
<path d="M357 17.7344L355.5 19.5006" stroke="#B6B6B6" stroke-linecap="round" stroke-linejoin="round"/>
<path d="M370.501 19.4984L369.004 17.7344" stroke="#B6B6B6" stroke-linecap="round" stroke-linejoin="round"/>
<path d="M360.685 19.2617L360 21.3767" stroke="#B6B6B6" stroke-linecap="round" stroke-linejoin="round"/>
<path d="M365.297 19.2656L366 21.3746" stroke="#B6B6B6" stroke-linecap="round" stroke-linejoin="round"/>
</svg>
