<svg width="14" height="11" viewBox="0 0 14 11" fill="none" xmlns="http://www.w3.org/2000/svg">
<path d="M9.47203 8.47534L10.9987 6.94201L12.5254 8.47534L13.472 7.52868L11.9387 6.00201L13.472 4.47534L12.5254 3.52868L10.9987 5.06201L9.47203 3.52868L8.52536 4.47534L10.052 6.00201L8.52536 7.52868L9.47203 8.47534ZM6.9987 3.33534C7.00691 2.98291 6.94354 2.63247 6.81244 2.30522C6.68133 1.97797 6.48521 1.68072 6.23593 1.43144C5.98665 1.18217 5.6894 0.986043 5.36215 0.854936C5.03491 0.72383 4.68447 0.660466 4.33203 0.668676C3.97959 0.660466 3.62915 0.72383 3.30191 0.854936C2.97466 0.986043 2.67741 1.18217 2.42813 1.43144C2.17885 1.68072 1.98273 1.97797 1.85163 2.30522C1.72052 2.63247 1.65715 2.98291 1.66536 3.33534C1.65715 3.68778 1.72052 4.03822 1.85163 4.36547C1.98273 4.69271 2.17885 4.98996 2.42813 5.23924C2.67741 5.48852 2.97466 5.68464 3.30191 5.81575C3.62915 5.94686 3.97959 6.01022 4.33203 6.00201C4.68447 6.01022 5.03491 5.94686 5.36215 5.81575C5.6894 5.68464 5.98665 5.48852 6.23593 5.23924C6.48521 4.98996 6.68133 4.69271 6.81244 4.36547C6.94354 4.03822 7.00691 3.68778 6.9987 3.33534ZM2.9987 3.33534C2.99012 3.15798 3.01874 2.98078 3.08271 2.81513C3.14669 2.64948 3.2446 2.49904 3.37016 2.37347C3.49573 2.24791 3.64617 2.15 3.81182 2.08603C3.97747 2.02205 4.15466 1.99343 4.33203 2.00201C4.5094 1.99343 4.6866 2.02205 4.85225 2.08603C5.0179 2.15 5.16834 2.24791 5.2939 2.37347C5.41946 2.49904 5.51738 2.64948 5.58135 2.81513C5.64532 2.98078 5.67394 3.15798 5.66536 3.33534C5.67394 3.51271 5.64532 3.68991 5.58135 3.85556C5.51738 4.02121 5.41946 4.17165 5.2939 4.29721C5.16834 4.42277 5.0179 4.52069 4.85225 4.58466C4.6866 4.64863 4.5094 4.67725 4.33203 4.66868C4.15466 4.67725 3.97747 4.64863 3.81182 4.58466C3.64617 4.52069 3.49573 4.42277 3.37016 4.29721C3.2446 4.17165 3.14669 4.02121 3.08271 3.85556C3.01874 3.68991 2.99012 3.51271 2.9987 3.33534ZM1.66536 10.002C1.66536 9.47158 1.87608 8.96287 2.25115 8.5878C2.62622 8.21272 3.13493 8.00201 3.66536 8.00201H4.9987C5.52913 8.00201 6.03784 8.21272 6.41291 8.5878C6.78798 8.96287 6.9987 9.47158 6.9987 10.002V10.6687H8.33203V10.002C8.33203 9.56427 8.24581 9.13082 8.0783 8.7264C7.91078 8.32198 7.66525 7.95452 7.35572 7.64499C7.04619 7.33546 6.67873 7.08993 6.27431 6.92241C5.86989 6.75489 5.43644 6.66868 4.9987 6.66868H3.66536C2.78131 6.66868 1.93346 7.01987 1.30834 7.64499C0.683221 8.27011 0.332031 9.11795 0.332031 10.002V10.6687H1.66536V10.002Z" fill="#E56969"/>
</svg>
