<svg width="16" height="16" viewBox="0 0 16 16" fill="none" xmlns="http://www.w3.org/2000/svg">
<path d="M0.609375 8.73438L6.51562 11.6875C6.93229 11.8958 7.42708 12 8 12C8.57292 12 9.06771 11.8958 9.48438 11.6875L15.3906 8.73438C15.7969 8.52604 16 8.27865 16 7.99219C16 7.70573 15.7969 7.45833 15.3906 7.25L13.8594 6.5L12.7656 7.04688L15 8L8 11L1 8L3.23438 7.04688L2.14062 6.5L0.609375 7.25C0.203125 7.45833 0 7.70573 0 7.99219C0 8.27865 0.203125 8.52604 0.609375 8.73438ZM0.609375 4.73438L6.51562 7.6875C6.93229 7.89583 7.42708 8 8 8C8.57292 8 9.06771 7.89583 9.48438 7.6875L15.3906 4.73438C15.7969 4.52604 16 4.27865 16 3.99219C16 3.70573 15.7969 3.45833 15.3906 3.25L9.48438 0.296875C9.06771 0.0989583 8.57292 0 8 0C7.42708 0 6.93229 0.0989583 6.51562 0.296875L0.609375 3.25C0.203125 3.45833 0 3.70573 0 3.99219C0 4.27865 0.203125 4.52604 0.609375 4.73438ZM15.3906 11.2656L13.8594 10.5L12.7656 11.0469L15 12L8 15L1 12L3.23438 11.0469L2.14062 10.5L0.609375 11.2656C0.203125 11.4635 0 11.7083 0 12C0 12.2917 0.203125 12.5365 0.609375 12.7344L6.51562 15.6875C6.93229 15.8958 7.42708 16 8 16C8.57292 16 9.06771 15.8958 9.48438 15.6875L15.3906 12.7344C15.7969 12.5365 16 12.2917 16 12C16 11.7083 15.7969 11.4635 15.3906 11.2656Z" fill="#1E75B7"/>
</svg>
