<svg width="14" height="12" viewBox="0 0 14 12" fill="none" xmlns="http://www.w3.org/2000/svg">
<path d="M10.9592 5.10156H5.73922C5.24242 5.10156 5.19922 5.50386 5.19922 6.00156C5.19922 6.49926 5.24242 6.90156 5.73922 6.90156H10.9592C11.456 6.90156 11.4992 6.49926 11.4992 6.00156C11.4992 5.50386 11.456 5.10156 10.9592 5.10156ZM12.7592 9.60156H5.73922C5.24242 9.60156 5.19922 10.0039 5.19922 10.5016C5.19922 10.9993 5.24242 11.4016 5.73922 11.4016H12.7592C13.256 11.4016 13.2992 10.9993 13.2992 10.5016C13.2992 10.0039 13.256 9.60156 12.7592 9.60156ZM5.73922 2.40156H12.7592C13.256 2.40156 13.2992 1.99926 13.2992 1.50156C13.2992 1.00386 13.256 0.601562 12.7592 0.601562H5.73922C5.24242 0.601562 5.19922 1.00386 5.19922 1.50156C5.19922 1.99926 5.24242 2.40156 5.73922 2.40156ZM2.85922 5.10156H1.23922C0.742419 5.10156 0.699219 5.50386 0.699219 6.00156C0.699219 6.49926 0.742419 6.90156 1.23922 6.90156H2.85922C3.35602 6.90156 3.39922 6.49926 3.39922 6.00156C3.39922 5.50386 3.35602 5.10156 2.85922 5.10156ZM2.85922 9.60156H1.23922C0.742419 9.60156 0.699219 10.0039 0.699219 10.5016C0.699219 10.9993 0.742419 11.4016 1.23922 11.4016H2.85922C3.35602 11.4016 3.39922 10.9993 3.39922 10.5016C3.39922 10.0039 3.35602 9.60156 2.85922 9.60156ZM2.85922 0.601562H1.23922C0.742419 0.601562 0.699219 1.00386 0.699219 1.50156C0.699219 1.99926 0.742419 2.40156 1.23922 2.40156H2.85922C3.35602 2.40156 3.39922 1.99926 3.39922 1.50156C3.39922 1.00386 3.35602 0.601562 2.85922 0.601562Z" fill="#1E75B7"/>
</svg>
