<svg width="12" height="12" viewBox="0 0 12 12" fill="none" xmlns="http://www.w3.org/2000/svg">
<path d="M11.8536 6.3535L9.22931 8.9785C9.13536 9.07134 9.0085 9.12323 8.87641 9.12285C8.74433 9.12247 8.61777 9.06984 8.52436 8.97645C8.43095 8.88307 8.37829 8.75652 8.37787 8.62444C8.37745 8.49236 8.42931 8.36547 8.52213 8.2715L10.2931 6.5H4.5C4.36739 6.5 4.24021 6.44732 4.14645 6.35355C4.05268 6.25979 4 6.13261 4 6C4 5.86739 4.05268 5.74021 4.14645 5.64645C4.24021 5.55268 4.36739 5.5 4.5 5.5H10.2931L8.52213 3.7285C8.42931 3.63453 8.37745 3.50764 8.37787 3.37556C8.37829 3.24348 8.43095 3.11693 8.52436 3.02355C8.61777 2.93016 8.74433 2.87753 8.87641 2.87715C9.0085 2.87676 9.13536 2.92866 9.22931 3.0215L11.8536 5.6465C11.9473 5.74026 12 5.86742 12 6C12 6.13258 11.9473 6.25974 11.8536 6.3535ZM4.5 11H1V1H4.5C4.63261 1 4.75979 0.947321 4.85355 0.853553C4.94732 0.759785 5 0.632608 5 0.5C5 0.367392 4.94732 0.240215 4.85355 0.146447C4.75979 0.0526785 4.63261 0 4.5 0H1C0.734875 0.000297764 0.480694 0.10575 0.293222 0.293222C0.10575 0.480694 0.000297764 0.734875 0 1V11C0.000297764 11.2651 0.10575 11.5193 0.293222 11.7068C0.480694 11.8942 0.734875 11.9997 1 12H4.5C4.63261 12 4.75979 11.9473 4.85355 11.8536C4.94732 11.7598 5 11.6326 5 11.5C5 11.3674 4.94732 11.2402 4.85355 11.1464C4.75979 11.0527 4.63261 11 4.5 11Z" fill="#1E75B7"/>
</svg>
