<svg width="32" height="34" viewBox="0 0 32 34" fill="none" xmlns="http://www.w3.org/2000/svg">
<g filter="url(#filter0_d)">
<path d="M0 2C0 0.895431 0.895431 0 2 0H30C31.1046 0 32 0.895431 32 2V30C32 31.1046 31.1046 32 30 32H2C0.895431 32 0 31.1046 0 30V2Z" fill="white"/>
<path d="M10.75 15.9844C10.75 16.0993 10.7726 16.2131 10.8166 16.3192C10.8606 16.4254 10.925 16.5218 11.0063 16.6031C11.0875 16.6843 11.184 16.7488 11.2902 16.7928C11.3963 16.8367 11.5101 16.8594 11.625 16.8594C11.7399 16.8594 11.8537 16.8367 11.9598 16.7928C12.066 16.7488 12.1625 16.6843 12.2437 16.6031C12.325 16.5218 12.3894 16.4254 12.4334 16.3192C12.4774 16.2131 12.5 16.0993 12.5 15.9844C12.5 15.8695 12.4774 15.7557 12.4334 15.6495C12.3894 15.5434 12.325 15.4469 12.2437 15.3657C12.1625 15.2844 12.066 15.22 11.9598 15.176C11.8537 15.132 11.7399 15.1094 11.625 15.1094C11.5101 15.1094 11.3963 15.132 11.2902 15.176C11.184 15.22 11.0875 15.2844 11.0063 15.3657C10.925 15.4469 10.8606 15.5434 10.8166 15.6495C10.7726 15.7557 10.75 15.8695 10.75 15.9844ZM15.125 15.9844C15.125 16.2164 15.2172 16.439 15.3813 16.6031C15.5454 16.7672 15.7679 16.8594 16 16.8594C16.2321 16.8594 16.4546 16.7672 16.6187 16.6031C16.7828 16.439 16.875 16.2164 16.875 15.9844C16.875 15.7523 16.7828 15.5298 16.6187 15.3657C16.4546 15.2016 16.2321 15.1094 16 15.1094C15.7679 15.1094 15.5454 15.2016 15.3813 15.3657C15.2172 15.5298 15.125 15.7523 15.125 15.9844ZM19.5 15.9844C19.5 16.2164 19.5922 16.439 19.7563 16.6031C19.9204 16.7672 20.1429 16.8594 20.375 16.8594C20.6071 16.8594 20.8296 16.7672 20.9937 16.6031C21.1578 16.439 21.25 16.2164 21.25 15.9844C21.25 15.7523 21.1578 15.5298 20.9937 15.3657C20.8296 15.2016 20.6071 15.1094 20.375 15.1094C20.1429 15.1094 19.9204 15.2016 19.7563 15.3657C19.5922 15.5298 19.5 15.7523 19.5 15.9844Z" fill="#1E75B7"/>
<path d="M2 1H30V-1H2V1ZM31 2V30H33V2H31ZM30 31H2V33H30V31ZM1 30V2H-1V30H1ZM2 31C1.44772 31 1 30.5523 1 30H-1C-1 31.6569 0.343146 33 2 33V31ZM31 30C31 30.5523 30.5523 31 30 31V33C31.6569 33 33 31.6569 33 30H31ZM30 1C30.5523 1 31 1.44772 31 2H33C33 0.343146 31.6569 -1 30 -1V1ZM2 -1C0.343146 -1 -1 0.343146 -1 2H1C1 1.44772 1.44772 1 2 1V-1Z" fill="#D9D9D9"/>
</g>
<defs>
<filter id="filter0_d" x="0" y="0" width="32" height="34" filterUnits="userSpaceOnUse" color-interpolation-filters="sRGB">
<feFlood flood-opacity="0" result="BackgroundImageFix"/>
<feColorMatrix in="SourceAlpha" type="matrix" values="0 0 0 0 0 0 0 0 0 0 0 0 0 0 0 0 0 0 127 0" result="hardAlpha"/>
<feOffset dy="2"/>
<feColorMatrix type="matrix" values="0 0 0 0 0 0 0 0 0 0 0 0 0 0 0 0 0 0 0.016 0"/>
<feBlend mode="normal" in2="BackgroundImageFix" result="effect1_dropShadow"/>
<feBlend mode="normal" in="SourceGraphic" in2="effect1_dropShadow" result="shape"/>
</filter>
</defs>
</svg>
