<svg width="58" height="58" viewBox="0 0 58 58" fill="none" xmlns="http://www.w3.org/2000/svg">
<path d="M38.8496 4.83398H47.0324C50.4212 4.83398 53.1671 7.60313 53.1671 11.0206V19.2724C53.1671 22.6899 50.4212 25.459 47.0324 25.459H38.8496C35.4608 25.459 32.7148 22.6899 32.7148 19.2724V11.0206C32.7148 7.60313 35.4608 4.83398 38.8496 4.83398Z" fill="#8AC240"/>
<path d="M19.1496 32.5423C22.5384 32.5423 25.2843 35.3114 25.2843 38.7289V46.9807C25.2843 50.3959 22.5384 53.1673 19.1496 53.1673H10.9668C7.57798 53.1673 4.83203 50.3959 4.83203 46.9807V38.7289C4.83203 35.3114 7.57798 32.5423 10.9668 32.5423H19.1496ZM47.0306 32.5423C50.4194 32.5423 53.1654 35.3114 53.1654 38.7289V46.9807C53.1654 50.3959 50.4194 53.1673 47.0306 53.1673H38.8479C35.459 53.1673 32.7131 50.3959 32.7131 46.9807V38.7289C32.7131 35.3114 35.459 32.5423 38.8479 32.5423H47.0306ZM19.1496 4.83398C22.5384 4.83398 25.2843 7.60313 25.2843 11.0206V19.2724C25.2843 22.6899 22.5384 25.459 19.1496 25.459H10.9668C7.57798 25.459 4.83203 22.6899 4.83203 19.2724V11.0206C4.83203 7.60313 7.57798 4.83398 10.9668 4.83398H19.1496Z" fill="#E5E5E5"/>
</svg>
