<svg width="16" height="16" viewBox="0 0 16 16" fill="none" xmlns="http://www.w3.org/2000/svg">
<rect x="2.5" y="2.5" width="11" height="11" rx="1.5" stroke="#1E75B7"/>
<path fill-rule="evenodd" clip-rule="evenodd" d="M5.89092 6.26562C6.67445 6.26617 7.33668 6.7867 7.5519 7.49931L11.3395 7.49969C11.6155 7.49969 11.8395 7.72369 11.8395 7.99969V9.23502C11.8395 9.51102 11.6155 9.73502 11.3395 9.73502C11.0635 9.73502 10.8395 9.51102 10.8395 9.23502V8.49969L9.95372 8.49936L9.95405 9.23502C9.95405 9.51102 9.73005 9.73502 9.45405 9.73502C9.17805 9.73502 8.95405 9.51102 8.95405 9.23502L8.95372 8.49936L7.55219 8.5C7.33711 9.21344 6.67384 9.73496 5.89092 9.73496C4.93425 9.73496 4.15625 8.95629 4.15625 8.00029C4.15625 7.04362 4.93425 6.26562 5.89092 6.26562ZM5.89225 7.26563C5.48558 7.26563 5.15625 7.59496 5.15625 8.00029C5.15625 8.40562 5.48558 8.73496 5.89092 8.73496C6.29558 8.73496 6.62558 8.40562 6.62558 8.00029C6.62558 7.59562 6.29625 7.26629 5.89225 7.26563Z" fill="#1E75B7"/>
</svg>
