<svg width="16" height="16" viewBox="0 0 16 16" fill="none" xmlns="http://www.w3.org/2000/svg">
<path d="M11.0492 0.699219C11.646 0.699219 12.2183 0.936272 12.6402 1.35823C13.0622 1.78019 13.2992 2.35248 13.2992 2.94922V6.63922C13.0116 6.49204 12.7101 6.37357 12.3992 6.28552V4.29922H1.59922V11.0492C1.59922 11.4073 1.74145 11.7506 1.99462 12.0038C2.2478 12.257 2.59118 12.3992 2.94922 12.3992H6.28552C6.37462 12.7133 6.49252 13.0139 6.63922 13.2992H2.94922C2.35248 13.2992 1.78019 13.0622 1.35823 12.6402C0.936272 12.2183 0.699219 11.646 0.699219 11.0492V2.94922C0.699219 2.35248 0.936272 1.78019 1.35823 1.35823C1.78019 0.936272 2.35248 0.699219 2.94922 0.699219H11.0492ZM11.0492 1.59922H2.94922C2.59118 1.59922 2.2478 1.74145 1.99462 1.99462C1.74145 2.2478 1.59922 2.59118 1.59922 2.94922V3.39922H12.3992V2.94922C12.3992 2.59118 12.257 2.2478 12.0038 1.99462C11.7506 1.74145 11.4073 1.59922 11.0492 1.59922ZM10.4867 9.24922C10.4867 9.10003 10.546 8.95696 10.6515 8.85147C10.757 8.74598 10.9 8.68672 11.0492 8.68672C11.1984 8.68672 11.3415 8.74598 11.447 8.85147C11.5525 8.95696 11.6117 9.10003 11.6117 9.24922C11.6117 9.3984 11.5525 9.54148 11.447 9.64697C11.3415 9.75246 11.1984 9.81172 11.0492 9.81172C10.9 9.81172 10.757 9.75246 10.6515 9.64697C10.546 9.54148 10.4867 9.3984 10.4867 9.24922ZM11.4992 12.8492C11.4992 12.9686 11.4518 13.083 11.3674 13.1674C11.283 13.2518 11.1686 13.2992 11.0492 13.2992C10.9299 13.2992 10.8154 13.2518 10.731 13.1674C10.6466 13.083 10.5992 12.9686 10.5992 12.8492V11.0492C10.5992 10.9299 10.6466 10.8154 10.731 10.731C10.8154 10.6466 10.9299 10.5992 11.0492 10.5992C11.1686 10.5992 11.283 10.6466 11.3674 10.731C11.4518 10.8154 11.4992 10.9299 11.4992 11.0492V12.8492ZM6.99922 11.0492C6.99922 9.97509 7.42591 8.94496 8.18544 8.18544C8.94496 7.42591 9.97509 6.99922 11.0492 6.99922C12.1233 6.99922 13.1535 7.42591 13.913 8.18544C14.6725 8.94496 15.0992 9.97509 15.0992 11.0492C15.0992 12.1233 14.6725 13.1535 13.913 13.913C13.1535 14.6725 12.1233 15.0992 11.0492 15.0992C9.97509 15.0992 8.94496 14.6725 8.18544 13.913C7.42591 13.1535 6.99922 12.1233 6.99922 11.0492ZM7.89922 11.0492C7.89922 11.4629 7.9807 11.8725 8.139 12.2547C8.2973 12.6368 8.52933 12.9841 8.82183 13.2766C9.11434 13.5691 9.46159 13.8011 9.84377 13.9594C10.2259 14.1177 10.6356 14.1992 11.0492 14.1992C11.4629 14.1992 11.8725 14.1177 12.2547 13.9594C12.6368 13.8011 12.9841 13.5691 13.2766 13.2766C13.5691 12.9841 13.8011 12.6368 13.9594 12.2547C14.1177 11.8725 14.1992 11.4629 14.1992 11.0492C14.1992 10.2138 13.8673 9.41257 13.2766 8.82183C12.6859 8.23109 11.8847 7.89922 11.0492 7.89922C10.2138 7.89922 9.41257 8.23109 8.82183 8.82183C8.23109 9.41257 7.89922 10.2138 7.89922 11.0492Z" fill="#1E75B7"/>
</svg>
