<svg width="14" height="14" viewBox="0 0 14 14" fill="none" xmlns="http://www.w3.org/2000/svg">
<path d="M9.85185 5.83333H12.963C13.2379 5.83299 13.5015 5.70996 13.6959 5.49124C13.8903 5.27252 13.9997 4.97598 14 4.66667V1.16667C13.9997 0.857354 13.8903 0.56081 13.6959 0.342093C13.5015 0.123375 13.2379 0.000347391 12.963 0H9.85185C9.57691 0.000347391 9.31331 0.123375 9.1189 0.342093C8.92448 0.56081 8.81512 0.857354 8.81481 1.16667V2.33333H8.2963C7.74641 2.33403 7.21922 2.58008 6.83039 3.01752C6.44156 3.45495 6.22284 4.04804 6.22222 4.66667V6.41667H4.66667V5.54167C4.66636 5.23235 4.557 4.93581 4.36258 4.71709C4.16817 4.49837 3.90457 4.37535 3.62963 4.375H1.03704C0.762092 4.37535 0.498497 4.49837 0.304082 4.71709C0.109667 4.93581 0.000308792 5.23235 0 5.54167V8.45833C0.000308792 8.76765 0.109667 9.06419 0.304082 9.28291C0.498497 9.50162 0.762092 9.62465 1.03704 9.625H3.62963C3.90457 9.62465 4.16817 9.50162 4.36258 9.28291C4.557 9.06419 4.66636 8.76765 4.66667 8.45833V7.58333H6.22222V9.33333C6.22284 9.95196 6.44156 10.545 6.83039 10.9825C7.21922 11.4199 7.74641 11.666 8.2963 11.6667H8.81481V12.8333C8.81512 13.1426 8.92448 13.4392 9.1189 13.6579C9.31331 13.8766 9.57691 13.9997 9.85185 14H12.963C13.2379 13.9997 13.5015 13.8766 13.6959 13.6579C13.8903 13.4392 13.9997 13.1426 14 12.8333V9.33333C13.9997 9.02402 13.8903 8.72748 13.6959 8.50876C13.5015 8.29004 13.2379 8.16701 12.963 8.16667H9.85185C9.57691 8.16701 9.31331 8.29004 9.1189 8.50876C8.92448 8.72748 8.81512 9.02402 8.81481 9.33333V10.5H8.2963C8.02135 10.4997 7.75776 10.3766 7.56334 10.1579C7.36893 9.93919 7.25957 9.64265 7.25926 9.33333V4.66667C7.25957 4.35735 7.36893 4.06081 7.56334 3.84209C7.75776 3.62337 8.02135 3.50035 8.2963 3.5H8.81481V4.66667C8.81512 4.97598 8.92448 5.27252 9.1189 5.49124C9.31331 5.70996 9.57691 5.83299 9.85185 5.83333ZM3.62963 8.45833H1.03704V5.54167H3.62963L3.62995 6.993C3.62995 6.99533 3.62963 6.99767 3.62963 7C3.62963 7.00241 3.62995 7.00467 3.62995 7.00707L3.63028 8.45833H3.62963ZM9.85185 9.33333H12.963L12.9636 12.8333H9.85185V9.33333ZM9.85185 1.16667H12.963L12.9636 4.66667H9.85185V1.16667Z" fill="#1E75B7"/>
</svg>
